<?xml version="1.0" encoding="iso-8859-1"?>
<!-- Generator: Adobe Illustrator 16.0.0, SVG Export Plug-In . SVG Version: 6.00 Build 0)  -->
<!DOCTYPE svg PUBLIC "-//W3C//DTD SVG 1.1//EN" "http://www.w3.org/Graphics/SVG/1.1/DTD/svg11.dtd">
<svg version="1.1" id="Capa_1" xmlns="http://www.w3.org/2000/svg" xmlns:xlink="http://www.w3.org/1999/xlink" x="0px" y="0px"
	 width="311.402px" height="311.402px" viewBox="0 0 311.402 311.402" style="enable-background:new 0 0 311.402 311.402;"
	 xml:space="preserve">
<g>
	<path d="M311.402,224.304v-8.101c0-62.677-17.207-73.78-47.614-87.998c-3.29-1.54-6.75-3.154-10.346-4.962
		c-15.884-39.814-54.755-66.34-97.733-66.34c-42.984,0-81.846,26.525-97.735,66.34c-3.602,1.809-7.056,3.423-10.352,4.962
		C17.205,142.423,0,153.521,0,216.203v8.101h34.167c-0.469-2.637-0.757-5.326-0.757-8.101c0-2.769,0.288-5.463,0.757-8.1H16.303
		c1.236-47.957,13.99-53.916,38.171-65.222c4.311-2.012,8.878-4.156,13.685-6.645l2.803-1.461l1.078-2.964
		c12.767-35.116,46.388-58.709,83.663-58.709c37.272,0,70.896,23.593,83.663,58.709l1.081,2.964l2.8,1.461
		c4.805,2.494,9.377,4.633,13.685,6.645c24.185,11.306,36.936,17.265,38.17,65.222h-19.586c0.475,2.637,0.76,5.331,0.76,8.1
		c0,2.774-0.285,5.464-0.76,8.101H311.402z"/>
	<path d="M124.313,208.104c0.469,2.637,0.757,5.331,0.757,8.1c0,2.774-0.288,5.464-0.757,8.101h61.053
		c-0.47-2.637-0.754-5.326-0.754-8.101c0-2.769,0.284-5.463,0.754-8.1H124.313z"/>
	<path d="M79.239,177.908c-18.338,0-33.689,12.962-37.415,30.195c-0.567,2.615-0.881,5.32-0.881,8.1l0,0
		c0,2.785,0.314,5.484,0.881,8.101c3.731,17.238,19.082,30.195,37.415,30.195s33.692-12.957,37.418-30.195
		c0.566-2.616,0.88-5.315,0.88-8.101l0,0c0-2.779-0.314-5.484-0.88-8.1C112.925,190.87,97.577,177.908,79.239,177.908z
		 M101.337,216.203L101.337,216.203c0,2.869-0.588,5.585-1.588,8.101c-3.246,8.174-11.195,13.995-20.511,13.995
		c-9.313,0-17.268-5.811-20.508-13.995c-1-2.516-1.587-5.231-1.587-8.101l0,0c0-2.868,0.588-5.579,1.587-8.1
		c3.246-8.174,11.195-13.996,20.508-13.996c9.315,0,17.271,5.816,20.511,13.996C100.749,210.613,101.337,213.335,101.337,216.203z"
		/>
	<path d="M230.439,254.499c18.341,0,33.691-12.957,37.42-30.195c0.564-2.616,0.876-5.315,0.876-8.101l0,0
		c0-2.779-0.312-5.484-0.876-8.1c-3.733-17.233-19.09-30.195-37.42-30.195c-18.331,0-33.687,12.962-37.415,30.195
		c-0.564,2.615-0.881,5.32-0.881,8.1l0,0c0,2.785,0.316,5.484,0.881,8.101C196.752,241.542,212.098,254.499,230.439,254.499z
		 M209.925,208.104c3.248-8.174,11.195-13.996,20.508-13.996c9.318,0,17.271,5.816,20.509,13.996c1.002,2.521,1.593,5.231,1.593,8.1
		l0,0c0,2.869-0.591,5.585-1.593,8.101c-3.243,8.174-11.19,13.995-20.509,13.995c-9.312,0-17.271-5.811-20.508-13.995
		c-1.002-2.516-1.588-5.231-1.588-8.101l0,0C208.343,213.335,208.934,210.613,209.925,208.104z"/>
	<path d="M212.035,142.736c0-31.065-25.271-56.339-56.336-56.339S99.36,111.671,99.36,142.736v8.101h112.675V142.736
		L212.035,142.736z M116.387,134.637c3.758-18.262,19.958-32.039,39.316-32.039c19.358,0,35.554,13.777,39.318,32.039H116.387z"/>
</g>
<g>
</g>
<g>
</g>
<g>
</g>
<g>
</g>
<g>
</g>
<g>
</g>
<g>
</g>
<g>
</g>
<g>
</g>
<g>
</g>
<g>
</g>
<g>
</g>
<g>
</g>
<g>
</g>
<g>
</g>
</svg>
